<?xml version="1.0" encoding="UTF-8"?>
<svg width="191px" height="33px" viewBox="0 0 191 33" version="1.1" xmlns="http://www.w3.org/2000/svg" xmlns:xlink="http://www.w3.org/1999/xlink">
    <title>wtm_logo_year</title>
    <g id="Page-1" stroke="none" stroke-width="1" fill="none" fill-rule="evenodd">
        <g id="Group-2">
            <g id="WTM-logo_horiz_stacked_white_rgb" fill="#77BE33" fill-rule="nonzero">
                <g id="Group" transform="translate(49.992218, 2.863813)">
                    <polygon id="Path" points="0 0.0124513619 1.33229572 0.0124513619 3.1688716 7.45836576 3.33696498 8.14941634 3.39299611 8.14941634 3.60466926 7.45836576 5.87081712 0.0124513619 7.11595331 0.0124513619 9.28249027 7.45836576 9.49416342 8.14941634 9.55019455 8.14941634 11.5486381 0.0124513619 12.8809339 0.0124513619 10.1478599 10.1478599 8.90272374 10.1478599 6.74863813 2.81400778 6.52451362 2.0233463 6.46848249 2.0233463 6.22568093 2.81400778 3.99066148 10.1478599 2.74552529 10.1478599"></polygon>
                    <path d="M14.6241245,9.86770428 C14.0575875,9.52529183 13.6155642,9.06459144 13.2980545,8.47937743 C12.9805447,7.89416342 12.8249027,7.24669261 12.8249027,6.54319066 C12.8249027,5.83346304 12.9805447,5.18599222 13.2980545,4.60077821 C13.6155642,4.0155642 14.0575875,3.55486381 14.6241245,3.21245136 C15.1906615,2.87003891 15.8256809,2.70194553 16.5354086,2.70194553 C17.2451362,2.70194553 17.8801556,2.87003891 18.4466926,3.21245136 C19.0132296,3.55486381 19.4552529,4.0155642 19.7727626,4.60077821 C20.0902724,5.18599222 20.2459144,5.83346304 20.2459144,6.54319066 C20.2459144,7.25291829 20.0902724,7.89416342 19.7727626,8.47937743 C19.4552529,9.06459144 19.0132296,9.52529183 18.4466926,9.86770428 C17.8801556,10.2101167 17.2451362,10.3782101 16.5354086,10.3782101 C15.8256809,10.3782101 15.1844358,10.2038911 14.6241245,9.86770428 Z M17.7680934,8.95252918 C18.1478599,8.72840467 18.459144,8.41089494 18.6894942,7.99377432 C18.9198444,7.5766537 19.0381323,7.09105058 19.0381323,6.53696498 C19.0381323,5.9766537 18.9198444,5.49105058 18.6894942,5.08015564 C18.459144,4.66303502 18.1540856,4.34552529 17.7680934,4.12140078 C17.3883268,3.89727626 16.9712062,3.79143969 16.5291829,3.79143969 C16.0871595,3.79143969 15.6700389,3.90350195 15.2840467,4.12140078 C14.8980545,4.34552529 14.5867704,4.66303502 14.3564202,5.08015564 C14.12607,5.49727626 14.0077821,5.98287938 14.0077821,6.53696498 C14.0077821,7.09105058 14.1198444,7.5766537 14.3564202,7.99377432 C14.5867704,8.41089494 14.8980545,8.72840467 15.2840467,8.95252918 C15.6700389,9.1766537 16.0871595,9.28249027 16.5291829,9.28249027 C16.9712062,9.28249027 17.3883268,9.1766537 17.7680934,8.95252918 Z" id="Shape"></path>
                    <path d="M21.4972763,2.93229572 L22.6428016,2.93229572 L22.6428016,3.99688716 L22.6988327,3.99688716 C22.9042802,3.62957198 23.2155642,3.32451362 23.6326848,3.07548638 C24.0498054,2.83268482 24.4856031,2.70817121 24.9463035,2.70817121 C25.4754864,2.70817121 25.9361868,2.83268482 26.3284047,3.08793774 C26.7206226,3.34319066 27.0007782,3.67937743 27.1688716,4.10894942 C27.4241245,3.68560311 27.7603113,3.34319066 28.1774319,3.08793774 C28.6007782,2.83268482 29.0863813,2.70817121 29.6404669,2.70817121 C30.4684825,2.70817121 31.0972763,2.96342412 31.5143969,3.46770428 C31.9377432,3.97198444 32.1431907,4.65680934 32.1431907,5.52840467 L32.1431907,10.1478599 L30.9540856,10.1478599 L30.9540856,5.70272374 C30.9540856,5.03035019 30.8171206,4.54474708 30.5431907,4.2459144 C30.2692607,3.94708171 29.8645914,3.79143969 29.3291829,3.79143969 C28.9680934,3.79143969 28.644358,3.89727626 28.351751,4.10272374 C28.059144,4.30817121 27.8287938,4.58832685 27.6669261,4.93696498 C27.4988327,5.28560311 27.4178988,5.66536965 27.4178988,6.07003891 L27.4178988,10.1478599 L26.2163424,10.1478599 L26.2163424,5.7151751 C26.2163424,5.03657588 26.0793774,4.54474708 25.8054475,4.2459144 C25.5315175,3.94708171 25.1330739,3.79143969 24.6038911,3.79143969 C24.2428016,3.79143969 23.9190661,3.89727626 23.6264591,4.10894942 C23.3338521,4.32062257 23.1035019,4.60700389 22.9416342,4.95564202 C22.7735409,5.31050584 22.692607,5.69027237 22.692607,6.09494163 L22.692607,10.1416342 L21.4910506,10.1416342 L21.4910506,2.93229572 L21.4972763,2.93229572 Z" id="Path"></path>
                    <path d="M35.2435798,9.88015564 C34.6957198,9.55019455 34.2661479,9.09571984 33.9610895,8.51673152 C33.6560311,7.93774319 33.5003891,7.28404669 33.5003891,6.55564202 C33.5003891,5.85836576 33.6435798,5.21712062 33.9299611,4.63190661 C34.2163424,4.04669261 34.6272374,3.57976654 35.1564202,3.2311284 C35.6856031,2.88249027 36.2957198,2.70817121 36.9992218,2.70817121 C37.7089494,2.70817121 38.3190661,2.86381323 38.8357977,3.18132296 C39.3525292,3.49883268 39.7509728,3.93463035 40.0311284,4.48871595 C40.311284,5.04280156 40.448249,5.68404669 40.448249,6.4 C40.448249,6.54319066 40.4357977,6.6614786 40.4046693,6.76731518 L34.7019455,6.76731518 C34.7268482,7.3151751 34.8638132,7.77587549 35.1003891,8.15564202 C35.336965,8.53540856 35.6357977,8.8155642 35.9968872,9.00856031 C36.3579767,9.20155642 36.7377432,9.28871595 37.1361868,9.28871595 C38.0638132,9.28871595 38.7735409,8.85291829 39.2715953,7.98754864 L40.292607,8.48560311 C39.981323,9.07081712 39.5579767,9.53151751 39.0225681,9.87392996 C38.4871595,10.2163424 37.8459144,10.3844358 37.092607,10.3844358 C36.4077821,10.3782101 35.7914397,10.2101167 35.2435798,9.88015564 Z M39.1782101,5.77743191 C39.1595331,5.47859922 39.0723735,5.17354086 38.9229572,4.87470817 C38.7735409,4.56964981 38.5307393,4.31439689 38.2070039,4.10894942 C37.8832685,3.90350195 37.4723735,3.79766537 36.9805447,3.79766537 C36.4140078,3.79766537 35.9346304,3.97821012 35.5424125,4.34552529 C35.1501946,4.70661479 34.8949416,5.18599222 34.770428,5.78365759 L39.1782101,5.78365759 L39.1782101,5.77743191 Z" id="Shape"></path>
                    <path d="M41.8490272,2.93229572 L42.9945525,2.93229572 L42.9945525,3.99688716 L43.0505837,3.99688716 C43.2498054,3.63579767 43.5673152,3.3307393 43.9968872,3.08171206 C44.4326848,2.83268482 44.8933852,2.70817121 45.385214,2.70817121 C46.2505837,2.70817121 46.9167315,2.96342412 47.3712062,3.46770428 C47.8256809,3.97198444 48.0560311,4.65680934 48.0560311,5.52840467 L48.0560311,10.1478599 L46.8544747,10.1478599 L46.8544747,5.70272374 C46.8544747,5.03035019 46.692607,4.54474708 46.3750973,4.2459144 C46.0575875,3.94708171 45.6155642,3.79143969 45.0614786,3.79143969 C44.6754864,3.79143969 44.3268482,3.89727626 44.0217899,4.1151751 C43.7167315,4.33307393 43.47393,4.61945525 43.3058366,4.97431907 C43.1377432,5.32918288 43.0505837,5.69649805 43.0505837,6.08249027 L43.0505837,10.1478599 L41.8490272,10.1478599 L41.8490272,2.93229572 L41.8490272,2.93229572 Z" id="Path"></path>
                    <polygon id="Path" points="2.96964981 16.5478599 0.124513619 16.5478599 0.124513619 15.4023346 7.00389105 15.4023346 7.00389105 16.5478599 4.17120623 16.5478599 4.17120623 25.5377432 2.96964981 25.5377432"></polygon>
                    <path d="M8.50428016,25.2638132 C7.95642023,24.9338521 7.52684825,24.4793774 7.22178988,23.9003891 C6.91673152,23.3214008 6.76108949,22.6677043 6.76108949,21.9392996 C6.76108949,21.2420233 6.90428016,20.6007782 7.19066148,20.0155642 C7.4770428,19.4303502 7.88793774,18.9634241 8.41712062,18.614786 C8.9463035,18.2661479 9.55642023,18.0918288 10.2599222,18.0918288 C10.9696498,18.0918288 11.5797665,18.2474708 12.0964981,18.5649805 C12.6132296,18.8824903 13.0116732,19.3182879 13.2918288,19.8723735 C13.5719844,20.4264591 13.7089494,21.0677043 13.7089494,21.7836576 C13.7089494,21.9268482 13.6964981,22.0451362 13.6653696,22.1509728 L7.9688716,22.1509728 C7.99377432,22.6988327 8.1307393,23.1595331 8.36731518,23.5392996 C8.60389105,23.9190661 8.90272374,24.1992218 9.26381323,24.3922179 C9.62490272,24.5789883 10.0046693,24.6723735 10.4031128,24.6723735 C11.3307393,24.6723735 12.0404669,24.2365759 12.5385214,23.3712062 L13.5595331,23.8692607 C13.248249,24.4544747 12.8249027,24.9151751 12.2894942,25.2575875 C11.7540856,25.6 11.1128405,25.7680934 10.3595331,25.7680934 C9.66848249,25.7618677 9.05214008,25.5937743 8.50428016,25.2638132 Z M12.4389105,21.1610895 C12.4202335,20.8622568 12.3330739,20.5571984 12.1836576,20.2583658 C12.0342412,19.9533074 11.7914397,19.6980545 11.4677043,19.492607 C11.1439689,19.2871595 10.7330739,19.181323 10.2412451,19.181323 C9.67470817,19.181323 9.19533074,19.3618677 8.80311284,19.7291829 C8.41089494,20.0902724 8.15564202,20.5696498 8.0311284,21.1673152 L12.4389105,21.1673152 L12.4389105,21.1610895 Z" id="Shape"></path>
                    <path d="M16.5727626,25.2575875 C16.018677,24.9214008 15.5828794,24.4669261 15.2715953,23.8817121 C14.9603113,23.3027237 14.8046693,22.6490272 14.8046693,21.9206226 C14.8046693,21.1922179 14.9603113,20.5385214 15.2715953,19.9533074 C15.5828794,19.3680934 16.018677,18.907393 16.5727626,18.5774319 C17.1330739,18.2474708 17.755642,18.0793774 18.4529183,18.0793774 C19.2373541,18.0793774 19.8910506,18.2599222 20.4264591,18.6272374 C20.9618677,18.9883268 21.3416342,19.47393 21.5657588,20.077821 L20.4762646,20.5322957 C20.2957198,20.0902724 20.0280156,19.7540856 19.6793774,19.5237354 C19.3245136,19.2933852 18.9011673,19.1750973 18.3968872,19.1750973 C17.9735409,19.1750973 17.5750973,19.2933852 17.2077821,19.5237354 C16.8404669,19.7540856 16.5478599,20.077821 16.3237354,20.4949416 C16.0996109,20.9120623 15.9937743,21.385214 15.9937743,21.9268482 C15.9937743,22.4622568 16.1058366,22.9416342 16.3237354,23.3587549 C16.5478599,23.7758755 16.8404669,24.0996109 17.2077821,24.3299611 C17.5750973,24.5603113 17.9735409,24.6785992 18.3968872,24.6785992 C18.907393,24.6785992 19.3431907,24.5603113 19.7105058,24.3237354 C20.077821,24.0871595 20.351751,23.7509728 20.5322957,23.3214008 L21.6093385,23.7758755 C21.366537,24.3673152 20.9680934,24.8529183 20.4264591,25.2202335 C19.8848249,25.5875486 19.2249027,25.7743191 18.4529183,25.7743191 C17.755642,25.7618677 17.1268482,25.5937743 16.5727626,25.2575875 Z" id="Path"></path>
                    <path d="M22.9105058,15.4023346 L24.1120623,15.4023346 L24.1120623,18.3906615 L24.0560311,19.3805447 L24.1120623,19.3805447 C24.311284,19.0132296 24.6225681,18.7081712 25.0521401,18.459144 C25.4817121,18.2163424 25.9486381,18.0918288 26.459144,18.0918288 C27.336965,18.0918288 28.0093385,18.3470817 28.4700389,18.8638132 C28.9307393,19.3805447 29.1610895,20.059144 29.1610895,20.9120623 L29.1610895,25.5377432 L27.9595331,25.5377432 L27.9595331,21.092607 C27.9595331,20.4389105 27.7976654,19.9595331 27.4614786,19.648249 C27.1315175,19.336965 26.7019455,19.181323 26.1727626,19.181323 C25.7929961,19.181323 25.4505837,19.2933852 25.1330739,19.5237354 C24.8155642,19.7478599 24.566537,20.0404669 24.3797665,20.4015564 C24.1929961,20.7626459 24.1058366,21.1299611 24.1058366,21.522179 L24.1058366,25.5439689 L22.9105058,25.5439689 L22.9105058,15.4023346 Z" id="Path"></path>
                    <path d="M30.8918288,18.3159533 L32.0373541,18.3159533 L32.0373541,19.3805447 L32.0933852,19.3805447 C32.2988327,19.0132296 32.6101167,18.7081712 33.0272374,18.459144 C33.444358,18.2163424 33.8801556,18.0918288 34.340856,18.0918288 C34.8700389,18.0918288 35.3307393,18.2163424 35.7229572,18.4715953 C36.1151751,18.7268482 36.3953307,19.063035 36.5634241,19.492607 C36.818677,19.0692607 37.1548638,18.7268482 37.5719844,18.4715953 C37.9953307,18.2163424 38.4809339,18.0918288 39.0350195,18.0918288 C39.863035,18.0918288 40.4918288,18.3470817 40.9089494,18.8513619 C41.3322957,19.355642 41.5377432,20.0404669 41.5377432,20.9120623 L41.5377432,25.5377432 L40.3486381,25.5377432 L40.3486381,21.092607 C40.3486381,20.4202335 40.2116732,19.9346304 39.9377432,19.6357977 C39.6638132,19.336965 39.259144,19.181323 38.7237354,19.181323 C38.3626459,19.181323 38.0389105,19.2871595 37.7463035,19.492607 C37.4536965,19.6980545 37.2233463,19.9782101 37.0614786,20.3268482 C36.8933852,20.6754864 36.8124514,21.0552529 36.8124514,21.4599222 L36.8124514,25.5377432 L35.6108949,25.5377432 L35.6108949,21.1050584 C35.6108949,20.4264591 35.47393,19.9346304 35.2,19.6357977 C34.92607,19.336965 34.5276265,19.181323 33.9984436,19.181323 C33.6373541,19.181323 33.3136187,19.2871595 33.0210117,19.4988327 C32.7284047,19.7105058 32.4980545,19.9968872 32.3361868,20.3455253 C32.1680934,20.7003891 32.0871595,21.0801556 32.0871595,21.4848249 L32.0871595,25.5315175 L30.8856031,25.5315175 L30.8856031,18.3159533 L30.8918288,18.3159533 Z" id="Path"></path>
                    <path d="M44.0964981,25.4505837 C43.6793774,25.2451362 43.3618677,24.9587549 43.1377432,24.5976654 C42.9136187,24.2365759 42.7953307,23.8194553 42.7953307,23.3587549 C42.7953307,22.5929961 43.0817121,21.9953307 43.6607004,21.5657588 C44.2396887,21.1361868 44.9618677,20.9245136 45.8396887,20.9245136 C46.2754864,20.9245136 46.67393,20.9743191 47.0474708,21.0677043 C47.4210117,21.1610895 47.707393,21.2731518 47.9066148,21.3914397 L47.9066148,20.955642 C47.9066148,20.4202335 47.7198444,19.9844358 47.3400778,19.6607004 C46.9603113,19.336965 46.4871595,19.1750973 45.9081712,19.1750973 C45.5035019,19.1750973 45.1299611,19.2622568 44.7875486,19.4365759 C44.4451362,19.6108949 44.1774319,19.8536965 43.9782101,20.1649805 L43.0754864,19.4863813 C43.355642,19.0505837 43.7478599,18.7143969 44.2396887,18.4653696 C44.7377432,18.2225681 45.2856031,18.0980545 45.8894942,18.0980545 C46.8731518,18.0980545 47.6389105,18.3533074 48.2054475,18.8700389 C48.7657588,19.3867704 49.0459144,20.0840467 49.0459144,20.9743191 L49.0459144,25.5439689 L47.9003891,25.5439689 L47.9003891,24.5105058 L47.844358,24.5105058 C47.6389105,24.859144 47.3276265,25.1579767 46.9105058,25.4007782 C46.4933852,25.6435798 46.0264591,25.7680934 45.5097276,25.7680934 C44.9867704,25.7618677 44.5136187,25.6560311 44.0964981,25.4505837 Z M46.7610895,24.3859922 C47.1097276,24.1805447 47.3898833,23.9003891 47.5953307,23.551751 C47.8007782,23.2031128 47.9066148,22.8233463 47.9066148,22.4062257 C47.6824903,22.2568093 47.4023346,22.1322957 47.0723735,22.0389105 C46.7424125,21.9455253 46.3937743,21.8957198 46.0264591,21.8957198 C45.366537,21.8957198 44.8684825,22.0326848 44.5322957,22.3066148 C44.1961089,22.5805447 44.0280156,22.9354086 44.0280156,23.3712062 C44.0280156,23.7696498 44.1774319,24.0871595 44.4824903,24.3361868 C44.7875486,24.585214 45.1673152,24.7035019 45.6280156,24.7035019 C46.0326848,24.6972763 46.4124514,24.5914397 46.7610895,24.3859922 Z" id="Shape"></path>
                    <polygon id="Path" points="50.7206226 15.4023346 51.922179 15.4023346 51.922179 21.7712062 55.3214008 18.3159533 56.8466926 18.3159533 56.8466926 18.3719844 54.0140078 21.229572 56.9151751 25.4754864 56.9151751 25.5315175 55.4832685 25.5315175 53.1610895 22.0638132 51.9159533 23.3089494 51.9159533 25.5315175 50.7143969 25.5315175 50.7143969 15.4023346"></polygon>
                    <path d="M59.0194553,25.2638132 C58.4715953,24.9338521 58.0420233,24.4793774 57.736965,23.9003891 C57.4319066,23.3214008 57.2762646,22.6677043 57.2762646,21.9392996 C57.2762646,21.2420233 57.4194553,20.6007782 57.7058366,20.0155642 C57.9922179,19.4303502 58.4031128,18.9634241 58.9322957,18.614786 C59.4614786,18.2661479 60.0715953,18.0918288 60.7750973,18.0918288 C61.4848249,18.0918288 62.0949416,18.2474708 62.6116732,18.5649805 C63.1284047,18.8824903 63.5268482,19.3182879 63.8070039,19.8723735 C64.0871595,20.4264591 64.2241245,21.0677043 64.2241245,21.7836576 C64.2241245,21.9268482 64.2116732,22.0451362 64.1805447,22.1509728 L58.477821,22.1509728 C58.5027237,22.6988327 58.6396887,23.1595331 58.8762646,23.5392996 C59.1128405,23.9190661 59.4116732,24.1992218 59.7727626,24.3922179 C60.1338521,24.5789883 60.5136187,24.6723735 60.9120623,24.6723735 C61.8396887,24.6723735 62.5494163,24.2365759 63.0474708,23.3712062 L64.0684825,23.8692607 C63.7571984,24.4544747 63.3338521,24.9151751 62.7984436,25.2575875 C62.263035,25.6 61.6217899,25.7680934 60.8684825,25.7680934 C60.1836576,25.7618677 59.5673152,25.5937743 59.0194553,25.2638132 Z M62.9540856,21.1610895 C62.9354086,20.8622568 62.848249,20.5571984 62.6988327,20.2583658 C62.5494163,19.9533074 62.3066148,19.6980545 61.9828794,19.492607 C61.659144,19.2871595 61.248249,19.181323 60.7564202,19.181323 C60.1898833,19.181323 59.7105058,19.3618677 59.3182879,19.7291829 C58.92607,20.0902724 58.6708171,20.5696498 58.5463035,21.1673152 L62.9540856,21.1673152 L62.9540856,21.1610895 Z" id="Shape"></path>
                    <path d="M65.6249027,18.3159533 L66.770428,18.3159533 L66.770428,19.47393 L66.8264591,19.47393 C66.9696498,19.0754864 67.2435798,18.7455253 67.648249,18.4840467 C68.0529183,18.2163424 68.4762646,18.0856031 68.9245136,18.0856031 C69.2544747,18.0856031 69.540856,18.1354086 69.7774319,18.2412451 L69.7774319,19.5299611 C69.4723735,19.3805447 69.1361868,19.3058366 68.7564202,19.3058366 C68.4077821,19.3058366 68.0840467,19.4054475 67.7914397,19.6046693 C67.4988327,19.8038911 67.2622568,20.0715953 67.0941634,20.4077821 C66.9198444,20.7439689 66.8326848,21.1050584 66.8326848,21.4910506 L66.8326848,25.5315175 L65.6311284,25.5315175 L65.6311284,18.3159533 L65.6249027,18.3159533 Z" id="Path"></path>
                    <path d="M71.2280156,25.2140078 C70.711284,24.8529183 70.3439689,24.3859922 70.12607,23.8194553 L71.2031128,23.3400778 C71.3836576,23.7758755 71.6513619,24.1120623 72.0062257,24.3486381 C72.3610895,24.585214 72.7470817,24.7035019 73.170428,24.7035019 C73.6249027,24.7035019 74.0108949,24.6101167 74.3284047,24.429572 C74.6459144,24.2490272 74.8077821,23.981323 74.8077821,23.6451362 C74.8077821,23.3463035 74.6770428,23.0972763 74.4280156,22.9167315 C74.1727626,22.7299611 73.7743191,22.5743191 73.2264591,22.4435798 L72.3486381,22.2194553 C71.7758755,22.0762646 71.3027237,21.8396887 70.9354086,21.4972763 C70.5680934,21.1548638 70.381323,20.7190661 70.381323,20.1836576 C70.381323,19.766537 70.5058366,19.4054475 70.7548638,19.0879377 C71.0038911,18.770428 71.3400778,18.5276265 71.7509728,18.3595331 C72.1680934,18.1914397 72.6163424,18.1042802 73.0957198,18.1042802 C73.7307393,18.1042802 74.2910506,18.2412451 74.7891051,18.5151751 C75.2871595,18.7891051 75.6357977,19.1688716 75.8412451,19.6607004 L74.7953307,20.1400778 C74.4715953,19.4988327 73.9050584,19.1750973 73.0832685,19.1750973 C72.6848249,19.1750973 72.3424125,19.2684825 72.0435798,19.4490272 C71.7447471,19.6357977 71.5953307,19.8661479 71.5953307,20.1463035 C71.5953307,20.4140078 71.7011673,20.6256809 71.9066148,20.7875486 C72.1120623,20.955642 72.4233463,21.0863813 72.8404669,21.1922179 L73.8863813,21.4599222 C74.5961089,21.6404669 75.1252918,21.9081712 75.4863813,22.2568093 C75.8474708,22.6116732 76.0217899,23.0412451 76.0217899,23.551751 C76.0217899,23.9937743 75.8910506,24.3859922 75.6420233,24.7159533 C75.3867704,25.0521401 75.044358,25.307393 74.6085603,25.4879377 C74.1727626,25.6684825 73.6933852,25.755642 73.1642023,25.755642 C72.3984436,25.7618677 71.7509728,25.5750973 71.2280156,25.2140078 Z" id="Path"></path>
                </g>
                <g id="Group">
                    <path d="M9.22023346,31.5019455 L0.635019455,31.5019455 C0.286381323,31.5019455 0.00622568093,31.2217899 0.00622568093,30.8731518 L0.00622568093,0.647470817 C0.00622568093,0.298832685 0.286381323,0.0186770428 0.635019455,0.0186770428 L9.22023346,0.0186770428 C9.5688716,0.0186770428 9.84902724,0.298832685 9.84902724,0.647470817 L9.84902724,3.32451362 C9.84902724,3.67315175 9.5688716,3.95330739 9.22023346,3.95330739 L4.56964981,3.95330739 C4.22101167,3.95330739 3.94085603,4.23346304 3.94085603,4.58210117 L3.94085603,26.9136187 C3.94085603,27.2622568 4.22101167,27.5424125 4.56964981,27.5424125 L9.22023346,27.5424125 C9.5688716,27.5424125 9.84902724,27.8225681 9.84902724,28.1712062 L9.84902724,30.8669261 C9.85525292,31.2217899 9.5688716,31.5019455 9.22023346,31.5019455 Z" id="Path"></path>
                    <path d="M28.3206226,0.0186770428 L36.8684825,0.0186770428 C37.2171206,0.0186770428 37.4972763,0.298832685 37.4972763,0.647470817 L37.4972763,30.8731518 C37.4972763,31.2217899 37.2171206,31.5019455 36.8684825,31.5019455 L28.3206226,31.5019455 C27.9719844,31.5019455 27.6918288,31.2217899 27.6918288,30.8731518 L27.6918288,28.1961089 C27.6918288,27.8474708 27.9719844,27.5673152 28.3206226,27.5673152 L32.9525292,27.5673152 C33.3011673,27.5673152 33.581323,27.2871595 33.581323,26.9385214 L33.581323,4.60700389 C33.581323,4.25836576 33.3011673,3.97821012 32.9525292,3.97821012 L28.3206226,3.97821012 C27.9719844,3.97821012 27.6918288,3.69805447 27.6918288,3.34941634 L27.6918288,0.653696498 C27.6980545,0.298832685 27.9782101,0.0186770428 28.3206226,0.0186770428 Z" id="Path"></path>
                    <g transform="translate(7.968872, 5.914397)" id="Path">
                        <path d="M15.7883268,9.51284047 L14.2381323,7.2155642 C14.2132296,7.35252918 14.1696498,7.48326848 14.1011673,7.60155642 L14.0949416,7.61400778 L11.1439689,12.0715953 L15.8381323,19.1439689 C16.0809339,19.5735409 16.3548638,19.6793774 16.722179,19.6856031 C16.7284047,19.6856031 16.7284047,19.6856031 16.7346304,19.6856031 L16.7533074,19.6856031 L20.7128405,19.6856031 L20.7501946,19.6856031 C21.2731518,19.6856031 21.6964981,19.2622568 21.6964981,18.7392996 L21.6964981,18.2474708 L15.7883268,9.51284047 L15.7883268,9.51284047 Z"></path>
                        <path d="M21.6902724,0.952529183 C21.6902724,0.429571984 21.2669261,0.00622568093 20.7439689,0.00622568093 L16.7284047,0.00622568093 C16.2054475,0.00622568093 15.7821012,0.448249027 15.7821012,0.952529183 L15.7821012,8.80311284 L21.6840467,17.5377432 L21.6840467,0.952529183 L21.6902724,0.952529183 Z"></path>
                        <path d="M5.93307393,0.952529183 C5.93307393,0.429571984 5.50972763,0.00622568093 4.98677043,0.00622568093 L0.971206226,0.00622568093 C0.448249027,0.00622568093 0.0249027237,0.429571984 0.0249027237,0.952529183 L0.0249027237,17.6249027 L5.92684825,8.9151751 L5.92684825,0.952529183 L5.93307393,0.952529183 Z"></path>
                        <path d="M13.7151751,6.42490272 C13.6715953,6.35019455 13.6217899,6.28171206 13.5657588,6.21945525 C13.385214,6.03268482 13.1361868,5.91439689 12.8373541,5.91439689 L8.98988327,5.91439689 C8.61011673,5.91439689 8.30505837,6.11361868 8.07470817,6.45603113 L6.02023346,9.48171206 L0.0249027237,18.3284047 L0.0249027237,18.7392996 C0.0249027237,18.8700389 0.0560311284,18.9883268 0.112062257,19.0941634 C0.261478599,19.4365759 0.585214008,19.6793774 1.03968872,19.6793774 L4.98054475,19.6793774 L4.99299611,19.6793774 C4.99299611,19.6793774 4.99299611,19.6793774 4.99922179,19.6793774 L5.08638132,19.6793774 C5.46614786,19.6793774 5.77743191,19.4801556 6.00155642,19.1377432 L10.9136187,11.7042802 L10.9136187,11.7042802 L13.7649805,7.38988327 C13.9206226,7.11595331 13.9019455,6.74241245 13.7151751,6.42490272 Z"></path>
                    </g>
                </g>
            </g>
            <text id="Montreal-2021" font-family="Roboto-Regular, Roboto" font-size="12.4513619" font-weight="normal" fill="#77BE33">
                <tspan x="140.264591" y="12.0622568">Montreal</tspan>
                <tspan x="140.264591" y="27.0622568">2021</tspan>
            </text>
            <line x1="134.038911" y1="31.9439689" x2="134.038911" y2="1.05214008" id="Line" stroke="#77BE33" stroke-width="0.871595331" fill="#D8D8D8" stroke-linecap="square"></line>
        </g>
    </g>
</svg>