<?xml version="1.0" encoding="UTF-8"?>
<svg width="4560px" height="531px" viewBox="0 0 4560 531" version="1.1" xmlns="http://www.w3.org/2000/svg" xmlns:xlink="http://www.w3.org/1999/xlink">
    <title>wtm_logo_year</title>
    <g id="Page-1" stroke="none" stroke-width="1" fill="none" fill-rule="evenodd">
        <g id="WTM-logo_horiz_stacked_white_rgb" fill="#FFFFFF" fill-rule="nonzero">
            <g id="Group" transform="translate(803.000000, 46.000000)">
                <polygon id="Path" points="0 0.2 21.4 0.2 50.9 119.8 53.6 130.9 54.5 130.9 57.9 119.8 94.3 0.2 114.3 0.2 149.1 119.8 152.5 130.9 153.4 130.9 185.5 0.2 206.9 0.2 163 163 143 163 108.4 45.2 104.8 32.5 103.9 32.5 100 45.2 64.1 163 44.1 163"></polygon>
                <path d="M234.9,158.5 C225.8,153 218.7,145.6 213.6,136.2 C208.5,126.8 206,116.4 206,105.1 C206,93.7 208.5,83.3 213.6,73.9 C218.7,64.5 225.8,57.1 234.9,51.6 C244,46.1 254.2,43.4 265.6,43.4 C277,43.4 287.2,46.1 296.3,51.6 C305.4,57.1 312.5,64.5 317.6,73.9 C322.7,83.3 325.2,93.7 325.2,105.1 C325.2,116.5 322.7,126.8 317.6,136.2 C312.5,145.6 305.4,153 296.3,158.5 C287.2,164 277,166.7 265.6,166.7 C254.2,166.7 243.9,163.9 234.9,158.5 Z M285.4,143.8 C291.5,140.2 296.5,135.1 300.2,128.4 C303.9,121.7 305.8,113.9 305.8,105 C305.8,96 303.9,88.2 300.2,81.6 C296.5,74.9 291.6,69.8 285.4,66.2 C279.3,62.6 272.6,60.9 265.5,60.9 C258.4,60.9 251.7,62.7 245.5,66.2 C239.3,69.8 234.3,74.9 230.6,81.6 C226.9,88.3 225,96.1 225,105 C225,113.9 226.8,121.7 230.6,128.4 C234.3,135.1 239.3,140.2 245.5,143.8 C251.7,147.4 258.4,149.1 265.5,149.1 C272.6,149.1 279.3,147.4 285.4,143.8 Z" id="Shape"></path>
                <path d="M345.3,47.1 L363.7,47.1 L363.7,64.2 L364.6,64.2 C367.9,58.3 372.9,53.4 379.6,49.4 C386.3,45.5 393.3,43.5 400.7,43.5 C409.2,43.5 416.6,45.5 422.9,49.6 C429.2,53.7 433.7,59.1 436.4,66 C440.5,59.2 445.9,53.7 452.6,49.6 C459.4,45.5 467.2,43.5 476.1,43.5 C489.4,43.5 499.5,47.6 506.2,55.7 C513,63.8 516.3,74.8 516.3,88.8 L516.3,163 L497.2,163 L497.2,91.6 C497.2,80.8 495,73 490.6,68.2 C486.2,63.4 479.7,60.9 471.1,60.9 C465.3,60.9 460.1,62.6 455.4,65.9 C450.7,69.2 447,73.7 444.4,79.3 C441.7,84.9 440.4,91 440.4,97.5 L440.4,163 L421.1,163 L421.1,91.8 C421.1,80.9 418.9,73 414.5,68.2 C410.1,63.4 403.7,60.9 395.2,60.9 C389.4,60.9 384.2,62.6 379.5,66 C374.8,69.4 371.1,74 368.5,79.6 C365.8,85.3 364.5,91.4 364.5,97.9 L364.5,162.9 L345.2,162.9 L345.2,47.1 L345.3,47.1 Z" id="Path"></path>
                <path d="M566.1,158.7 C557.3,153.4 550.4,146.1 545.5,136.8 C540.6,127.5 538.1,117 538.1,105.3 C538.1,94.1 540.4,83.8 545,74.4 C549.6,65 556.2,57.5 564.7,51.9 C573.2,46.3 583,43.5 594.3,43.5 C605.7,43.5 615.5,46 623.8,51.1 C632.1,56.2 638.5,63.2 643,72.1 C647.5,81 649.7,91.3 649.7,102.8 C649.7,105.1 649.5,107 649,108.7 L557.4,108.7 C557.8,117.5 560,124.9 563.8,131 C567.6,137.1 572.4,141.6 578.2,144.7 C584,147.8 590.1,149.2 596.5,149.2 C611.4,149.2 622.8,142.2 630.8,128.3 L647.2,136.3 C642.2,145.7 635.4,153.1 626.8,158.6 C618.2,164.1 607.9,166.8 595.8,166.8 C584.8,166.7 574.9,164 566.1,158.7 Z M629.3,92.8 C629,88 627.6,83.1 625.2,78.3 C622.8,73.4 618.9,69.3 613.7,66 C608.5,62.7 601.9,61 594,61 C584.9,61 577.2,63.9 570.9,69.8 C564.6,75.6 560.5,83.3 558.5,92.9 L629.3,92.9 L629.3,92.8 Z" id="Shape"></path>
                <path d="M672.2,47.1 L690.6,47.1 L690.6,64.2 L691.5,64.2 C694.7,58.4 699.8,53.5 706.7,49.5 C713.7,45.5 721.1,43.5 729,43.5 C742.9,43.5 753.6,47.6 760.9,55.7 C768.2,63.8 771.9,74.8 771.9,88.8 L771.9,163 L752.6,163 L752.6,91.6 C752.6,80.8 750,73 744.9,68.2 C739.8,63.4 732.7,60.9 723.8,60.9 C717.6,60.9 712,62.6 707.1,66.1 C702.2,69.6 698.3,74.2 695.6,79.9 C692.9,85.6 691.5,91.5 691.5,97.7 L691.5,163 L672.2,163 L672.2,47.1 L672.2,47.1 Z" id="Path"></path>
                <polygon id="Path" points="47.7 265.8 2 265.8 2 247.4 112.5 247.4 112.5 265.8 67 265.8 67 410.2 47.7 410.2"></polygon>
                <path d="M136.6,405.8 C127.8,400.5 120.9,393.2 116,383.9 C111.1,374.6 108.6,364.1 108.6,352.4 C108.6,341.2 110.9,330.9 115.5,321.5 C120.1,312.1 126.7,304.6 135.2,299 C143.7,293.4 153.5,290.6 164.8,290.6 C176.2,290.6 186,293.1 194.3,298.2 C202.6,303.3 209,310.3 213.5,319.2 C218,328.1 220.2,338.4 220.2,349.9 C220.2,352.2 220,354.1 219.5,355.8 L128,355.8 C128.4,364.6 130.6,372 134.4,378.1 C138.2,384.2 143,388.7 148.8,391.8 C154.6,394.8 160.7,396.3 167.1,396.3 C182,396.3 193.4,389.3 201.4,375.4 L217.8,383.4 C212.8,392.8 206,400.2 197.4,405.7 C188.8,411.2 178.5,413.9 166.4,413.9 C155.3,413.8 145.4,411.1 136.6,405.8 Z M199.8,339.9 C199.5,335.1 198.1,330.2 195.7,325.4 C193.3,320.5 189.4,316.4 184.2,313.1 C179,309.8 172.4,308.1 164.5,308.1 C155.4,308.1 147.7,311 141.4,316.9 C135.1,322.7 131,330.4 129,340 L199.8,340 L199.8,339.9 Z" id="Shape"></path>
                <path d="M266.2,405.7 C257.3,400.3 250.3,393 245.3,383.6 C240.3,374.3 237.8,363.8 237.8,352.1 C237.8,340.4 240.3,329.9 245.3,320.5 C250.3,311.1 257.3,303.7 266.2,298.4 C275.2,293.1 285.2,290.4 296.4,290.4 C309,290.4 319.5,293.3 328.1,299.2 C336.7,305 342.8,312.8 346.4,322.5 L328.9,329.8 C326,322.7 321.7,317.3 316.1,313.6 C310.4,309.9 303.6,308 295.5,308 C288.7,308 282.3,309.9 276.4,313.6 C270.5,317.3 265.8,322.5 262.2,329.2 C258.6,335.9 256.9,343.5 256.9,352.2 C256.9,360.8 258.7,368.5 262.2,375.2 C265.8,381.9 270.5,387.1 276.4,390.8 C282.3,394.5 288.7,396.4 295.5,396.4 C303.7,396.4 310.7,394.5 316.6,390.7 C322.5,386.9 326.9,381.5 329.8,374.6 L347.1,381.9 C343.2,391.4 336.8,399.2 328.1,405.1 C319.4,411 308.8,414 296.4,414 C285.2,413.8 275.1,411.1 266.2,405.7 Z" id="Path"></path>
                <path d="M368,247.4 L387.3,247.4 L387.3,295.4 L386.4,311.3 L387.3,311.3 C390.5,305.4 395.5,300.5 402.4,296.5 C409.3,292.6 416.8,290.6 425,290.6 C439.1,290.6 449.9,294.7 457.3,303 C464.7,311.3 468.4,322.2 468.4,335.9 L468.4,410.2 L449.1,410.2 L449.1,338.8 C449.1,328.3 446.5,320.6 441.1,315.6 C435.8,310.6 428.9,308.1 420.4,308.1 C414.3,308.1 408.8,309.9 403.7,313.6 C398.6,317.2 394.6,321.9 391.6,327.7 C388.6,333.5 387.2,339.4 387.2,345.7 L387.2,410.3 L368,410.3 L368,247.4 Z" id="Path"></path>
                <path d="M496.2,294.2 L514.6,294.2 L514.6,311.3 L515.5,311.3 C518.8,305.4 523.8,300.5 530.5,296.5 C537.2,292.6 544.2,290.6 551.6,290.6 C560.1,290.6 567.5,292.6 573.8,296.7 C580.1,300.8 584.6,306.2 587.3,313.1 C591.4,306.3 596.8,300.8 603.5,296.7 C610.3,292.6 618.1,290.6 627,290.6 C640.3,290.6 650.4,294.7 657.1,302.8 C663.9,310.9 667.2,321.9 667.2,335.9 L667.2,410.2 L648.1,410.2 L648.1,338.8 C648.1,328 645.9,320.2 641.5,315.4 C637.1,310.6 630.6,308.1 622,308.1 C616.2,308.1 611,309.8 606.3,313.1 C601.6,316.4 597.9,320.9 595.3,326.5 C592.6,332.1 591.3,338.2 591.3,344.7 L591.3,410.2 L572,410.2 L572,339 C572,328.1 569.8,320.2 565.4,315.4 C561,310.6 554.6,308.1 546.1,308.1 C540.3,308.1 535.1,309.8 530.4,313.2 C525.7,316.6 522,321.2 519.4,326.8 C516.7,332.5 515.4,338.6 515.4,345.1 L515.4,410.1 L496.1,410.1 L496.1,294.2 L496.2,294.2 Z" id="Path"></path>
                <path d="M708.3,408.8 C701.6,405.5 696.5,400.9 692.9,395.1 C689.3,389.3 687.4,382.6 687.4,375.2 C687.4,362.9 692,353.3 701.3,346.4 C710.6,339.5 722.2,336.1 736.3,336.1 C743.3,336.1 749.7,336.9 755.7,338.4 C761.7,339.9 766.3,341.7 769.5,343.6 L769.5,336.6 C769.5,328 766.5,321 760.4,315.8 C754.3,310.6 746.7,308 737.4,308 C730.9,308 724.9,309.4 719.4,312.2 C713.9,315 709.6,318.9 706.4,323.9 L691.9,313 C696.4,306 702.7,300.6 710.6,296.6 C718.6,292.7 727.4,290.7 737.1,290.7 C752.9,290.7 765.2,294.8 774.3,303.1 C783.3,311.4 787.8,322.6 787.8,336.9 L787.8,410.3 L769.4,410.3 L769.4,393.7 L768.5,393.7 C765.2,399.3 760.2,404.1 753.5,408 C746.8,411.9 739.3,413.9 731,413.9 C722.6,413.8 715,412.1 708.3,408.8 Z M751.1,391.7 C756.7,388.4 761.2,383.9 764.5,378.3 C767.8,372.7 769.5,366.6 769.5,359.9 C765.9,357.5 761.4,355.5 756.1,354 C750.8,352.5 745.2,351.7 739.3,351.7 C728.7,351.7 720.7,353.9 715.3,358.3 C709.9,362.7 707.2,368.4 707.2,375.4 C707.2,381.8 709.6,386.9 714.5,390.9 C719.4,394.9 725.5,396.8 732.9,396.8 C739.4,396.7 745.5,395 751.1,391.7 Z" id="Shape"></path>
                <polygon id="Path" points="814.7 247.4 834 247.4 834 349.7 888.6 294.2 913.1 294.2 913.1 295.1 867.6 341 914.2 409.2 914.2 410.1 891.2 410.1 853.9 354.4 833.9 374.4 833.9 410.1 814.6 410.1 814.6 247.4"></polygon>
                <path d="M948,405.8 C939.2,400.5 932.3,393.2 927.4,383.9 C922.5,374.6 920,364.1 920,352.4 C920,341.2 922.3,330.9 926.9,321.5 C931.5,312.1 938.1,304.6 946.6,299 C955.1,293.4 964.9,290.6 976.2,290.6 C987.6,290.6 997.4,293.1 1005.7,298.2 C1014,303.3 1020.4,310.3 1024.9,319.2 C1029.4,328.1 1031.6,338.4 1031.6,349.9 C1031.6,352.2 1031.4,354.1 1030.9,355.8 L939.3,355.8 C939.7,364.6 941.9,372 945.7,378.1 C949.5,384.2 954.3,388.7 960.1,391.8 C965.9,394.8 972,396.3 978.4,396.3 C993.3,396.3 1004.7,389.3 1012.7,375.4 L1029.1,383.4 C1024.1,392.8 1017.3,400.2 1008.7,405.7 C1000.1,411.2 989.8,413.9 977.7,413.9 C966.7,413.8 956.8,411.1 948,405.8 Z M1011.2,339.9 C1010.9,335.1 1009.5,330.2 1007.1,325.4 C1004.7,320.5 1000.8,316.4 995.6,313.1 C990.4,309.8 983.8,308.1 975.9,308.1 C966.8,308.1 959.1,311 952.8,316.9 C946.5,322.7 942.4,330.4 940.4,340 L1011.2,340 L1011.2,339.9 Z" id="Shape"></path>
                <path d="M1054.1,294.2 L1072.5,294.2 L1072.5,312.8 L1073.4,312.8 C1075.7,306.4 1080.1,301.1 1086.6,296.9 C1093.1,292.6 1099.9,290.5 1107.1,290.5 C1112.4,290.5 1117,291.3 1120.8,293 L1120.8,313.7 C1115.9,311.3 1110.5,310.1 1104.4,310.1 C1098.8,310.1 1093.6,311.7 1088.9,314.9 C1084.2,318.1 1080.4,322.4 1077.7,327.8 C1074.9,333.2 1073.5,339 1073.5,345.2 L1073.5,410.1 L1054.2,410.1 L1054.2,294.2 L1054.1,294.2 Z" id="Path"></path>
                <path d="M1144.1,405 C1135.8,399.2 1129.9,391.7 1126.4,382.6 L1143.7,374.9 C1146.6,381.9 1150.9,387.3 1156.6,391.1 C1162.3,394.9 1168.5,396.8 1175.3,396.8 C1182.6,396.8 1188.8,395.3 1193.9,392.4 C1199,389.5 1201.6,385.2 1201.6,379.8 C1201.6,375 1199.5,371 1195.5,368.1 C1191.4,365.1 1185,362.6 1176.2,360.5 L1162.1,356.9 C1152.9,354.6 1145.3,350.8 1139.4,345.3 C1133.5,339.8 1130.5,332.8 1130.5,324.2 C1130.5,317.5 1132.5,311.7 1136.5,306.6 C1140.5,301.5 1145.9,297.6 1152.5,294.9 C1159.2,292.2 1166.4,290.8 1174.1,290.8 C1184.3,290.8 1193.3,293 1201.3,297.4 C1209.3,301.8 1214.9,307.9 1218.2,315.8 L1201.4,323.5 C1196.2,313.2 1187.1,308 1173.9,308 C1167.5,308 1162,309.5 1157.2,312.4 C1152.4,315.4 1150,319.1 1150,323.6 C1150,327.9 1151.7,331.3 1155,333.9 C1158.3,336.6 1163.3,338.7 1170,340.4 L1186.8,344.7 C1198.2,347.6 1206.7,351.9 1212.5,357.5 C1218.3,363.2 1221.1,370.1 1221.1,378.3 C1221.1,385.4 1219,391.7 1215,397 C1210.9,402.4 1205.4,406.5 1198.4,409.4 C1191.4,412.3 1183.7,413.7 1175.2,413.7 C1162.9,413.8 1152.5,410.8 1144.1,405 Z" id="Path"></path>
            </g>
            <g id="Group">
                <path d="M148.1,506 L10.2,506 C4.6,506 0.1,501.5 0.1,495.9 L0.1,10.4 C0.1,4.8 4.6,0.3 10.2,0.3 L148.1,0.3 C153.7,0.3 158.2,4.8 158.2,10.4 L158.2,53.4 C158.2,59 153.7,63.5 148.1,63.5 L73.4,63.5 C67.8,63.5 63.3,68 63.3,73.6 L63.3,432.3 C63.3,437.9 67.8,442.4 73.4,442.4 L148.1,442.4 C153.7,442.4 158.2,446.9 158.2,452.5 L158.2,495.8 C158.3,501.5 153.7,506 148.1,506 Z" id="Path"></path>
                <path d="M454.9,0.3 L592.2,0.3 C597.8,0.3 602.3,4.8 602.3,10.4 L602.3,495.9 C602.3,501.5 597.8,506 592.2,506 L454.9,506 C449.3,506 444.8,501.5 444.8,495.9 L444.8,452.9 C444.8,447.3 449.3,442.8 454.9,442.8 L529.3,442.8 C534.9,442.8 539.4,438.3 539.4,432.7 L539.4,74 C539.4,68.4 534.9,63.9 529.3,63.9 L454.9,63.9 C449.3,63.9 444.8,59.4 444.8,53.8 L444.8,10.5 C444.9,4.8 449.4,0.3 454.9,0.3 Z" id="Path"></path>
                <g transform="translate(128.000000, 95.000000)" id="Path">
                    <path d="M253.6,152.8 L228.7,115.9 C228.3,118.1 227.6,120.2 226.5,122.1 L226.4,122.3 L179,193.9 L254.4,307.5 C258.3,314.4 262.7,316.1 268.6,316.2 C268.7,316.2 268.7,316.2 268.8,316.2 L269.1,316.2 L332.7,316.2 L333.3,316.2 C341.7,316.2 348.5,309.4 348.5,301 L348.5,293.1 L253.6,152.8 L253.6,152.8 Z"></path>
                    <path d="M348.4,15.3 C348.4,6.9 341.6,0.1 333.2,0.1 L268.7,0.1 C260.3,0.1 253.5,7.2 253.5,15.3 L253.5,141.4 L348.3,281.7 L348.3,15.3 L348.4,15.3 Z"></path>
                    <path d="M95.3,15.3 C95.3,6.9 88.5,0.1 80.1,0.1 L15.6,0.1 C7.2,0.1 0.4,6.9 0.4,15.3 L0.4,283.1 L95.2,143.2 L95.2,15.3 L95.3,15.3 Z"></path>
                    <path d="M220.3,103.2 C219.6,102 218.8,100.9 217.9,99.9 C215,96.9 211,95 206.2,95 L144.4,95 C138.3,95 133.4,98.2 129.7,103.7 L96.7,152.3 L0.4,294.4 L0.4,301 C0.4,303.1 0.9,305 1.8,306.7 C4.2,312.2 9.4,316.1 16.7,316.1 L80,316.1 L80.2,316.1 C80.2,316.1 80.2,316.1 80.3,316.1 L81.7,316.1 C87.8,316.1 92.8,312.9 96.4,307.4 L175.3,188 L175.3,188 L221.1,118.7 C223.6,114.3 223.3,108.3 220.3,103.2 Z"></path>
                </g>
            </g>
        </g>
        <text id="Montreal-2021" font-family="Roboto-Regular, Roboto" font-size="200" font-weight="normal" fill="#FFFFFF">
            <tspan x="2253" y="187">Montreal</tspan>
            <tspan x="2253" y="422">2021</tspan>
        </text>
        <line x1="2153" y1="513.1" x2="2153" y2="16.9" id="Line" stroke="#FFFFFF" stroke-width="14" fill="#D8D8D8" stroke-linecap="square"></line>
    </g>
</svg>