<?xml version="1.0" encoding="UTF-8"?>
<svg width="562px" height="129px" viewBox="0 0 562 129" version="1.1" xmlns="http://www.w3.org/2000/svg" xmlns:xlink="http://www.w3.org/1999/xlink">
    <!-- Generator: Sketch 52.2 (67145) - http://www.bohemiancoding.com/sketch -->
    <title>Group</title>
    <desc>Created with Sketch.</desc>
    <g id="Page-1" stroke="none" stroke-width="1" fill="none" fill-rule="evenodd">
        <g id="logo-monochrome" fill="#757575">
            <g id="Group">
                <g id="XMLID_261_" transform="translate(0.500000, 0.000000)">
                    <polygon id="XMLID_259_" points="20.8 0 0 0 59.2 103.2 69.6 85.059375"></polygon>
                    <path d="M77.2,58.85625 L43.6,0 L23.2,0 L70.8,83.04375 L77.6,71.353125 C78.8,69.3375 79.2,67.321875 79.2,64.903125 C79.2,62.8875 78.4,60.46875 77.2,58.85625 Z" id="XMLID_258_"></path>
                    <polygon id="XMLID_257_" points="36 67.321875 0.8 129 21.2 129 46.4 85.059375"></polygon>
                    <polygon id="XMLID_256_" points="47.6 87.075 23.6 129 44.4 129 58 105.215625"></polygon>
                </g>
                <path d="M152.12,58.12 C147.406643,58.12 143.066687,56.9766781 139.1,54.69 C135.133313,52.4033219 131.983345,49.2533534 129.65,45.24 C127.316655,41.2266466 126.15,36.7933576 126.15,31.94 C126.15,27.0866424 127.316655,22.6533534 129.65,18.64 C131.983345,14.6266466 135.133313,11.4766781 139.1,9.19 C143.066687,6.9033219 147.406643,5.76 152.12,5.76 C155.806685,5.76 159.27165,6.4133268 162.515,7.72 C165.75835,9.0266732 168.42999,10.8699881 170.53,13.25 L166.26,17.52 C164.673325,15.5599902 162.643346,14.0550052 160.17,13.005 C157.696654,11.9549947 155.036681,11.43 152.19,11.43 C148.643316,11.43 145.341682,12.2816581 142.285,13.985 C139.228318,15.6883419 136.778343,18.0916511 134.935,21.195 C133.091657,24.2983488 132.17,27.8799797 132.17,31.94 C132.17,36.0000203 133.091657,39.5816511 134.935,42.685 C136.778343,45.7883489 139.239985,48.1916581 142.32,49.895 C145.400015,51.5983418 148.689982,52.45 152.19,52.45 C155.550017,52.45 158.361655,51.9250052 160.625,50.875 C162.888345,49.8249948 164.836658,48.4366753 166.47,46.71 C167.683339,45.4033268 168.66333,43.8283426 169.41,41.985 C170.15667,40.1416574 170.623332,38.1000112 170.81,35.86 L152.26,35.86 L152.26,30.33 L176.34,30.33 C176.573334,31.6366732 176.69,32.8499944 176.69,33.97 C176.69,37.0500154 176.200005,40.0483187 175.22,42.965 C174.239995,45.8816812 172.676677,48.4366557 170.53,50.63 C165.909977,55.6233583 159.773372,58.12 152.12,58.12 Z M183.91,6.88 L199.03,6.88 C204.163359,6.88 208.643314,7.94165605 212.47,10.065 C216.296686,12.188344 219.236656,15.1399811 221.29,18.92 C223.343344,22.7000189 224.37,27.0399755 224.37,31.94 C224.37,36.8400245 223.343344,41.1799811 221.29,44.96 C219.236656,48.7400189 216.296686,51.6916561 212.47,53.815 C208.643314,55.9383439 204.163359,57 199.03,57 L183.91,57 L183.91,6.88 Z M199.03,51.33 C204.956696,51.33 209.658316,49.6266837 213.135,46.22 C216.611684,42.8133163 218.35,38.0533639 218.35,31.94 C218.35,25.8266361 216.611684,21.0666837 213.135,17.66 C209.658316,14.2533163 204.956696,12.55 199.03,12.55 L189.79,12.55 L189.79,51.33 L199.03,51.33 Z M255.04,58.12 C250.326643,58.12 245.986686,56.9766781 242.02,54.69 C238.053313,52.4033219 234.903345,49.2533534 232.57,45.24 C230.236655,41.2266466 229.07,36.7933576 229.07,31.94 C229.07,27.0866424 230.236655,22.6533534 232.57,18.64 C234.903345,14.6266466 238.053313,11.4766781 242.02,9.19 C245.986686,6.9033219 250.326643,5.76 255.04,5.76 C258.726685,5.76 262.19165,6.4133268 265.435,7.72 C268.67835,9.0266732 271.349989,10.8699881 273.45,13.25 L269.18,17.52 C267.593325,15.5599902 265.563346,14.0550052 263.09,13.005 C260.616654,11.9549947 257.956681,11.43 255.11,11.43 C251.563316,11.43 248.261682,12.2816581 245.205,13.985 C242.148318,15.6883419 239.698343,18.0916511 237.855,21.195 C236.011657,24.2983488 235.09,27.8799797 235.09,31.94 C235.09,36.0000203 236.011657,39.5816511 237.855,42.685 C239.698343,45.7883489 242.159985,48.1916581 245.24,49.895 C248.320015,51.5983418 251.609982,52.45 255.11,52.45 C258.470017,52.45 261.281655,51.9250052 263.545,50.875 C265.808345,49.8249948 267.756658,48.4366753 269.39,46.71 C270.603339,45.4033268 271.58333,43.8283426 272.33,41.985 C273.07667,40.1416574 273.543332,38.1000112 273.73,35.86 L255.18,35.86 L255.18,30.33 L279.26,30.33 C279.493334,31.6366732 279.61,32.8499944 279.61,33.97 C279.61,37.0500154 279.120005,40.0483187 278.14,42.965 C277.159995,45.8816812 275.596677,48.4366557 273.45,50.63 C268.829977,55.6233583 262.693372,58.12 255.04,58.12 Z M302.57,6.88 L311.18,6.88 L327.14,47.97 L327.42,47.97 L343.38,6.88 L351.99,6.88 L351.99,57 L346.11,57 L346.11,25.15 L346.39,15.63 L346.11,15.63 L329.73,57 L324.83,57 L308.45,15.63 L308.17,15.63 L308.45,25.15 L308.45,57 L302.57,57 L302.57,6.88 Z M376.85,58.12 C373.349982,58.12 370.200014,57.2800084 367.4,55.6 C364.599986,53.9199916 362.418341,51.6333478 360.855,48.74 C359.291659,45.8466522 358.51,42.6500175 358.51,39.15 C358.51,35.6499825 359.291659,32.4533478 360.855,29.56 C362.418341,26.6666522 364.599986,24.3800084 367.4,22.7 C370.200014,21.0199916 373.349982,20.18 376.85,20.18 C380.350017,20.18 383.499986,21.0199916 386.3,22.7 C389.100014,24.3800084 391.281659,26.6666522 392.845,29.56 C394.408341,32.4533478 395.19,35.6499825 395.19,39.15 C395.19,42.6500175 394.408341,45.8466522 392.845,48.74 C391.281659,51.6333478 389.100014,53.9199916 386.3,55.6 C383.499986,57.2800084 380.350017,58.12 376.85,58.12 Z M376.85,52.73 C379.043344,52.73 381.08499,52.1816721 382.975,51.085 C384.865009,49.9883278 386.381661,48.4133436 387.525,46.36 C388.668339,44.3066564 389.24,41.9033471 389.24,39.15 C389.24,36.3966529 388.668339,33.9933436 387.525,31.94 C386.381661,29.8866564 384.865009,28.3116722 382.975,27.215 C381.08499,26.1183279 379.043344,25.57 376.85,25.57 C374.656656,25.57 372.603343,26.1183279 370.69,27.215 C368.776657,28.3116722 367.248339,29.8866564 366.105,31.94 C364.961661,33.9933436 364.39,36.3966529 364.39,39.15 C364.39,41.9033471 364.961661,44.3066564 366.105,46.36 C367.248339,48.4133436 368.776657,49.9883278 370.69,51.085 C372.603343,52.1816721 374.656656,52.73 376.85,52.73 Z M399.82,21.3 L405.49,21.3 L405.49,26.55 L405.77,26.55 C406.750005,24.7766578 408.313322,23.2716728 410.46,22.035 C412.606677,20.7983272 414.893321,20.18 417.32,20.18 C421.613355,20.18 424.891655,21.4283209 427.155,23.925 C429.418345,26.4216791 430.55,29.8166452 430.55,34.11 L430.55,57 L424.6,57 L424.6,35.02 C424.6,31.7066501 423.806674,29.3033408 422.22,27.81 C420.633325,26.3166592 418.463347,25.57 415.71,25.57 C413.796657,25.57 412.081674,26.1066613 410.565,27.18 C409.048326,28.2533387 407.870004,29.6649912 407.03,31.415 C406.189996,33.1650087 405.77,34.9966571 405.77,36.91 L405.77,57 L399.82,57 L399.82,21.3 Z M449.46,57.56 C448.013326,57.56 446.671673,57.326669 445.435,56.86 C444.198327,56.393331 443.160004,55.7633373 442.32,54.97 C441.386662,54.0833289 440.686669,53.0566725 440.22,51.89 C439.753331,50.7233275 439.52,49.3000084 439.52,47.62 L439.52,26.69 L433.29,26.69 L433.29,21.3 L439.52,21.3 L439.52,11.22 L445.47,11.22 L445.47,21.3 L454.15,21.3 L454.15,26.69 L445.47,26.69 L445.47,46.15 C445.47,48.1100098 445.843329,49.556662 446.59,50.49 C447.476671,51.5166718 448.759991,52.03 450.44,52.03 C451.79334,52.03 453.099994,51.6333373 454.36,50.84 L454.36,56.65 C453.659996,56.9766683 452.948337,57.2099993 452.225,57.35 C451.501663,57.4900007 450.580005,57.56 449.46,57.56 Z M459.76,21.3 L465.43,21.3 L465.43,27.04 L465.71,27.04 C466.410003,25.0799902 467.763323,23.4583397 469.77,22.175 C471.776677,20.8916603 473.876656,20.25 476.07,20.25 C477.703341,20.25 479.103327,20.483331 480.27,20.95 L480.27,27.39 C478.776659,26.6433296 477.096676,26.27 475.23,26.27 C473.503325,26.27 471.916674,26.7599951 470.47,27.74 C469.023326,28.7200049 467.868337,30.038325 467.005,31.695 C466.141662,33.3516749 465.71,35.1366571 465.71,37.05 L465.71,57 L459.76,57 L459.76,21.3 Z M498.2,58.12 C494.793316,58.12 491.73668,57.3033415 489.03,55.67 C486.32332,54.0366585 484.211674,51.7850143 482.695,48.915 C481.178326,46.0449857 480.42,42.8133513 480.42,39.22 C480.42,35.7666494 481.131659,32.5933478 482.555,29.7 C483.97834,26.8066522 485.996653,24.4966753 488.61,22.77 C491.223346,21.0433247 494.256649,20.18 497.71,20.18 C501.210017,20.18 504.24332,20.9616589 506.81,22.525 C509.376679,24.0883412 511.348326,26.2466529 512.725,29 C514.101673,31.7533471 514.79,34.9033156 514.79,38.45 C514.79,39.1500035 514.720001,39.7566641 514.58,40.27 L486.37,40.27 C486.510001,42.9766802 487.163327,45.263324 488.33,47.13 C489.496672,48.996676 490.978324,50.396662 492.775,51.33 C494.571675,52.263338 496.44999,52.73 498.41,52.73 C502.983356,52.73 506.506654,50.5833548 508.98,46.29 L514.02,48.74 C512.479992,51.6333478 510.39168,53.9199916 507.755,55.6 C505.11832,57.2800084 501.933352,58.12 498.2,58.12 Z M508.49,35.37 C508.396666,33.8766592 507.97667,32.3833408 507.23,30.89 C506.483329,29.3966592 505.305008,28.1366718 503.695,27.11 C502.084992,26.0833282 500.066679,25.57 497.64,25.57 C494.839986,25.57 492.471676,26.4683243 490.535,28.265 C488.598323,30.0616756 487.32667,32.4299853 486.72,35.37 L508.49,35.37 Z M531.88,58.12 C529.266653,58.12 526.933343,57.6066718 524.88,56.58 C522.826656,55.5533282 521.240005,54.1416757 520.12,52.345 C518.999994,50.5483244 518.44,48.5066781 518.44,46.22 C518.44,42.4399811 519.863319,39.488344 522.71,37.365 C525.556681,35.241656 529.149978,34.18 533.49,34.18 C535.636677,34.18 537.631657,34.413331 539.475,34.88 C541.318342,35.346669 542.729995,35.8833303 543.71,36.49 L543.71,34.32 C543.71,31.6599867 542.776676,29.525008 540.91,27.915 C539.043324,26.304992 536.686681,25.5 533.84,25.5 C531.833323,25.5 529.990008,25.9316624 528.31,26.795 C526.629991,27.6583377 525.300005,28.8599923 524.32,30.4 L519.84,27.04 C521.240007,24.8933226 523.164988,23.2133394 525.615,22 C528.065012,20.7866606 530.783318,20.18 533.77,20.18 C538.623357,20.18 542.438319,21.451654 545.215,23.995 C547.99168,26.5383461 549.38,30.0033114 549.38,34.39 L549.38,57 L543.71,57 L543.71,51.89 L543.43,51.89 C542.403328,53.6166753 540.863343,55.0866606 538.81,56.3 C536.756656,57.5133394 534.446679,58.12 531.88,58.12 Z M532.44,52.87 C534.446676,52.87 536.313324,52.3566718 538.04,51.33 C539.766675,50.3033282 541.143328,48.9266753 542.17,47.2 C543.196672,45.4733247 543.71,43.5833436 543.71,41.53 C542.589994,40.7833296 541.213341,40.176669 539.58,39.71 C537.946658,39.243331 536.220009,39.01 534.4,39.01 C531.133317,39.01 528.671675,39.6866599 527.015,41.04 C525.358325,42.3933401 524.53,44.1433226 524.53,46.29 C524.53,48.2500098 525.276659,49.8366606 526.77,51.05 C528.263341,52.2633394 530.153322,52.87 532.44,52.87 Z M556.04,6.88 L561.99,6.88 L561.99,57 L556.04,57 L556.04,6.88 Z M143.02,73.88 L149.74,73.88 L168.78,124 L162.27,124 L157.23,110.21 L135.6,110.21 L130.56,124 L124.05,124 L143.02,73.88 Z M155.2,104.61 L148.55,86.55 L146.52,81.16 L146.24,81.16 L144.28,86.55 L137.63,104.61 L155.2,104.61 Z M172.64,88.3 L178.31,88.3 L178.31,93.55 L178.59,93.55 C179.570005,91.7766578 181.133323,90.2716728 183.28,89.035 C185.426677,87.7983272 187.713321,87.18 190.14,87.18 C194.433355,87.18 197.711655,88.4283209 199.975,90.925 C202.238345,93.4216792 203.37,96.8166452 203.37,101.11 L203.37,124 L197.42,124 L197.42,102.02 C197.42,98.7066501 196.626675,96.3033408 195.04,94.81 C193.453325,93.3166592 191.283347,92.57 188.53,92.57 C186.616657,92.57 184.901674,93.1066613 183.385,94.18 C181.868326,95.2533387 180.690004,96.6649912 179.85,98.415 C179.009996,100.165009 178.59,101.996657 178.59,103.91 L178.59,124 L172.64,124 L172.64,88.3 Z M225.43,125.12 C222.256651,125.12 219.375013,124.303342 216.785,122.67 C214.194987,121.036659 212.153341,118.785014 210.66,115.915 C209.166659,113.044986 208.42,109.790018 208.42,106.15 C208.42,102.556649 209.166659,99.3133478 210.66,96.42 C212.153341,93.5266522 214.194987,91.2633415 216.785,89.63 C219.375013,87.9966585 222.256651,87.18 225.43,87.18 C228.183347,87.18 230.633323,87.7983272 232.78,89.035 C234.926677,90.2716728 236.559994,91.7999909 237.68,93.62 L237.96,93.62 L237.68,88.65 L237.68,73.88 L243.63,73.88 L243.63,124 L237.96,124 L237.96,118.75 L237.68,118.75 C236.559994,120.523342 234.926677,122.028327 232.78,123.265 C230.633323,124.501673 228.183347,125.12 225.43,125.12 Z M226.13,119.73 C228.23001,119.73 230.178324,119.170006 231.975,118.05 C233.771676,116.929994 235.218328,115.343344 236.315,113.29 C237.411672,111.236656 237.96,108.85668 237.96,106.15 C237.96,103.44332 237.411672,101.063344 236.315,99.01 C235.218328,96.9566564 233.771676,95.3700056 231.975,94.25 C230.178324,93.1299944 228.23001,92.57 226.13,92.57 C224.076656,92.57 222.140009,93.1299944 220.32,94.25 C218.499991,95.3700056 217.041672,96.9683229 215.945,99.045 C214.848328,101.121677 214.3,103.489987 214.3,106.15 C214.3,108.810013 214.848328,111.178323 215.945,113.255 C217.041672,115.331677 218.499991,116.929994 220.32,118.05 C222.140009,119.170006 224.076656,119.73 226.13,119.73 Z M250.85,88.3 L256.52,88.3 L256.52,94.04 L256.8,94.04 C257.500003,92.0799902 258.853323,90.4583397 260.86,89.175 C262.866677,87.8916603 264.966656,87.25 267.16,87.25 C268.793341,87.25 270.193327,87.483331 271.36,87.95 L271.36,94.39 C269.866659,93.6433296 268.186676,93.27 266.32,93.27 C264.593325,93.27 263.006674,93.7599951 261.56,94.74 C260.113326,95.7200049 258.958338,97.038325 258.095,98.695 C257.231662,100.351675 256.8,102.136657 256.8,104.05 L256.8,124 L250.85,124 L250.85,88.3 Z M289.85,125.12 C286.349982,125.12 283.200014,124.280008 280.4,122.6 C277.599986,120.919992 275.418341,118.633348 273.855,115.74 C272.291659,112.846652 271.51,109.650017 271.51,106.15 C271.51,102.649982 272.291659,99.4533478 273.855,96.56 C275.418341,93.6666522 277.599986,91.3800084 280.4,89.7 C283.200014,88.0199916 286.349982,87.18 289.85,87.18 C293.350017,87.18 296.499986,88.0199916 299.3,89.7 C302.100014,91.3800084 304.281659,93.6666522 305.845,96.56 C307.408341,99.4533478 308.19,102.649982 308.19,106.15 C308.19,109.650017 307.408341,112.846652 305.845,115.74 C304.281659,118.633348 302.100014,120.919992 299.3,122.6 C296.499986,124.280008 293.350017,125.12 289.85,125.12 Z M289.85,119.73 C292.043344,119.73 294.08499,119.181672 295.975,118.085 C297.865009,116.988328 299.381661,115.413344 300.525,113.36 C301.668339,111.306656 302.24,108.903347 302.24,106.15 C302.24,103.396653 301.668339,100.993344 300.525,98.94 C299.381661,96.8866564 297.865009,95.3116721 295.975,94.215 C294.08499,93.1183278 292.043344,92.57 289.85,92.57 C287.656656,92.57 285.603343,93.1183278 283.69,94.215 C281.776657,95.3116721 280.248339,96.8866564 279.105,98.94 C277.961661,100.993344 277.39,103.396653 277.39,106.15 C277.39,108.903347 277.961661,111.306656 279.105,113.36 C280.248339,115.413344 281.776657,116.988328 283.69,118.085 C285.603343,119.181672 287.656656,119.73 289.85,119.73 Z M316.32,81.72 C315.153327,81.72 314.150004,81.3000042 313.31,80.46 C312.469996,79.6199958 312.05,78.6166725 312.05,77.45 C312.05,76.2833275 312.469996,75.2916707 313.31,74.475 C314.150004,73.6583292 315.153327,73.25 316.32,73.25 C317.486672,73.25 318.489996,73.6583292 319.33,74.475 C320.170004,75.2916707 320.59,76.2833275 320.59,77.45 C320.59,78.6166725 320.181671,79.6199958 319.365,80.46 C318.548329,81.3000042 317.533339,81.72 316.32,81.72 Z M313.38,88.3 L319.26,88.3 L319.26,124 L313.38,124 L313.38,88.3 Z M342.16,125.12 C338.986651,125.12 336.105013,124.303342 333.515,122.67 C330.924987,121.036659 328.883341,118.785014 327.39,115.915 C325.896659,113.044986 325.15,109.790018 325.15,106.15 C325.15,102.556649 325.896659,99.3133478 327.39,96.42 C328.883341,93.5266522 330.924987,91.2633415 333.515,89.63 C336.105013,87.9966585 338.986651,87.18 342.16,87.18 C344.913347,87.18 347.363322,87.7983272 349.51,89.035 C351.656677,90.2716728 353.289994,91.7999909 354.41,93.62 L354.69,93.62 L354.41,88.65 L354.41,73.88 L360.36,73.88 L360.36,124 L354.69,124 L354.69,118.75 L354.41,118.75 C353.289994,120.523342 351.656677,122.028327 349.51,123.265 C347.363322,124.501673 344.913347,125.12 342.16,125.12 Z M342.86,119.73 C344.96001,119.73 346.908324,119.170006 348.705,118.05 C350.501676,116.929994 351.948328,115.343344 353.045,113.29 C354.141672,111.236656 354.69,108.85668 354.69,106.15 C354.69,103.44332 354.141672,101.063344 353.045,99.01 C351.948328,96.9566564 350.501676,95.3700056 348.705,94.25 C346.908324,93.1299944 344.96001,92.57 342.86,92.57 C340.806656,92.57 338.870009,93.1299944 337.05,94.25 C335.229991,95.3700056 333.771672,96.9683229 332.675,99.045 C331.578328,101.121677 331.03,103.489987 331.03,106.15 C331.03,108.810013 331.578328,111.178323 332.675,113.255 C333.771672,115.331677 335.229991,116.929994 337.05,118.05 C338.870009,119.170006 340.806656,119.73 342.86,119.73 Z" id="GDG-Montreal-Android"></path>
            </g>
        </g>
    </g>
</svg>
