<?xml version="1.0" encoding="UTF-8"?>
<svg width="6986px" height="409px" viewBox="0 0 6986 409" version="1.1" xmlns="http://www.w3.org/2000/svg" xmlns:xlink="http://www.w3.org/1999/xlink">
    <title>GDG</title>
    <g id="Page-1" stroke="none" stroke-width="1" fill="none" fill-rule="evenodd">
        <g id="gd_template_lockup_horizontal_color-(1)" transform="translate(3265.000000, 0.000000)">
            <g id="g10" transform="translate(1860.500000, 204.746670) scale(-1, 1) rotate(-180.000000) translate(-1860.500000, -204.746670) translate(0.000000, 0.746670)">
                <g id="g12" transform="translate(0.000000, 0.000000)">
                    <g id="g14" transform="translate(0.000000, -0.000000)">
                        <g id="g20" transform="translate(33.990932, 203.581861)" fill="#EA4335" fill-rule="nonzero">
                            <path d="M165.333329,0 L300.750659,78.1853314 C332.619992,96.5826643 343.538658,137.335997 325.138659,169.202662 C306.738659,201.070662 265.991993,211.993328 234.119994,193.590662 L0.12533333,58.4933319 L165.333329,0 Z" id="path22"></path>
                        </g>
                        <g id="g24" transform="translate(0.030000, 2.635332)" fill="#4285F4" fill-rule="nonzero">
                            <path d="M301.333326,0 C324.362659,0 346.757325,11.9519997 359.099991,33.3266658 C377.499991,65.194665 366.581324,105.947997 334.711992,124.34533 L100.717331,259.439994 C68.8453316,277.85066 28.098666,266.91866 9.69866642,235.050661 C-8.70133312,203.179995 2.21733328,162.430663 34.0866658,144.031996 L268.081327,8.93866644 C278.573326,2.87866659 290.031993,0 301.333326,0" id="path26"></path>
                        </g>
                        <g id="g28" transform="translate(466.127588, 2.635332)" fill="#FBBC04" fill-rule="nonzero">
                            <path d="M67.9999983,0 C79.303998,0 90.7573311,2.87866659 101.251997,8.93866644 L335.243992,144.031996 L172.137329,203.739995 L34.6213325,124.34533 C2.75199993,105.947997 -8.16666646,65.194665 10.2333331,33.3266658 C22.5746661,11.9519997 44.9719989,0 67.9999983,0" id="path30"></path>
                        </g>
                        <g id="g32" transform="translate(466.660788, 137.729062)" fill="#0F9D58" fill-rule="nonzero">
                            <path d="M301.333326,0 C324.362659,0 346.757325,11.9479997 359.099991,33.3266658 C377.499991,65.194665 366.581324,105.943997 334.710658,124.346664 L100.718664,259.443994 C68.8493316,277.84266 28.102666,266.92666 9.69999976,235.055994 C-8.69999978,203.189328 2.21999994,162.439996 34.0879991,144.03733 L268.081327,8.93866644 C278.573326,2.88399993 290.030659,0 301.333326,0" id="path34"></path>
                        </g>
                        <g id="text38" transform="translate(2317.798108, 197.111988) scale(-1, 1) rotate(-180.000000) translate(-2317.798108, -197.111988) translate(914.798108, 0.611988)" fill="#676C72" font-family="GoogleSans-Regular, Google Sans" font-size="308.174408" font-weight="normal">
                            <text id="GDG-Cloud-Québec">
                                <tspan x="0.201891812" y="298.865318">GDG </tspan>
                                <tspan x="783.273062" y="298.865318">Cloud Québec</tspan>
                            </text>
                        </g>
                    </g>
                </g>
            </g>
        </g>
        <g id="g10" transform="translate(1470.500000, 204.746670) scale(-1, 1) rotate(-180.000000) translate(-1470.500000, -204.746670) translate(0.000000, 0.746670)">
            <g id="g12" transform="translate(0.000000, 0.000000)">
                <g id="g14-Clipped" transform="translate(-0.000000, 0.000000)">
                    <g id="g14" transform="translate(0.000000, -0.000000)">
                        <g id="g20" transform="translate(33.990932, 203.581861)" fill="#EA4335" fill-rule="nonzero">
                            <path d="M165.333329,0 L300.750659,78.1853314 C332.619992,96.5826643 343.538658,137.335997 325.138659,169.202662 C306.738659,201.070662 265.991993,211.993328 234.119994,193.590662 L0.12533333,58.4933319 L165.333329,0 Z" id="path22"></path>
                        </g>
                        <g id="g24" transform="translate(0.030000, 2.635332)" fill="#4285F4" fill-rule="nonzero">
                            <path d="M301.333326,0 C324.362659,0 346.757325,11.9519997 359.099991,33.3266658 C377.499991,65.194665 366.581324,105.947997 334.711992,124.34533 L100.717331,259.439994 C68.8453316,277.85066 28.098666,266.91866 9.69866642,235.050661 C-8.70133312,203.179995 2.21733328,162.430663 34.0866658,144.031996 L268.081327,8.93866644 C278.573326,2.87866659 290.031993,0 301.333326,0" id="path26"></path>
                        </g>
                        <g id="g28" transform="translate(466.127588, 2.635332)" fill="#FBBC04" fill-rule="nonzero">
                            <path d="M67.9999983,0 C79.303998,0 90.7573311,2.87866659 101.251997,8.93866644 L335.243992,144.031996 L172.137329,203.739995 L34.6213325,124.34533 C2.75199993,105.947997 -8.16666646,65.194665 10.2333331,33.3266658 C22.5746661,11.9519997 44.9719989,0 67.9999983,0" id="path30"></path>
                        </g>
                        <g id="g32" transform="translate(466.660788, 137.729062)" fill="#0F9D58" fill-rule="nonzero">
                            <path d="M301.333326,0 C324.362659,0 346.757325,11.9479997 359.099991,33.3266658 C377.499991,65.194665 366.581324,105.943997 334.710658,124.346664 L100.718664,259.443994 C68.8493316,277.84266 28.102666,266.92666 9.69999976,235.055994 C-8.69999978,203.189328 2.21999994,162.439996 34.0879991,144.03733 L268.081327,8.93866644 C278.573326,2.88399993 290.030659,0 301.333326,0" id="path34"></path>
                        </g>
                        <g id="text38" transform="translate(1927.798108, 197.111988) scale(-1, 1) rotate(-180.000000) translate(-1927.798108, -197.111988) translate(914.798108, 0.611988)" fill="#676C72" font-family="GoogleSans-Regular, Google Sans" font-size="308.174408" font-weight="normal">
                            <text id="GDG-Montreal">
                                <tspan x="0.201891812" y="298.865318">GDG </tspan>
                                <tspan x="789.436551" y="298.865318">Montreal</tspan>
                            </text>
                        </g>
                    </g>
                </g>
            </g>
        </g>
    </g>
</svg>